<?xml version="1.0" standalone="no"?>
<!DOCTYPE svg PUBLIC "-//W3C//DTD SVG 20010904//EN"
 "http://www.w3.org/TR/2001/REC-SVG-20010904/DTD/svg10.dtd">
<svg version="1.0" xmlns="http://www.w3.org/2000/svg"
 width="512.000000pt" height="512.000000pt" viewBox="0 0 512.000000 512.000000"
 preserveAspectRatio="xMidYMid meet">
<metadata>
Created by potrace 1.11, written by Peter Selinger 2001-2013
</metadata>
<g transform="translate(0.000000,512.000000) scale(0.100000,-0.100000)"
fill="#000000" stroke="none">
<path d="M605 5103 c-284 -60 -496 -259 -577 -540 l-23 -78 0 -1925 0 -1925
23 -78 c77 -268 270 -457 542 -534 62 -17 155 -18 1985 -18 1847 0 1923 1
1993 19 71 18 247 100 275 128 7 7 29 27 49 44 108 94 196 250 228 400 18 86
19 164 17 1994 -3 2130 4 1932 -73 2100 -88 189 -262 338 -473 402 l-76 23
-1910 2 c-1666 1 -1919 0 -1980 -14z m3838 -509 c31 -10 64 -30 91 -58 81 -81
75 90 73 -1989 l-2 -1852 -23 -47 c-28 -57 -86 -105 -148 -124 -38 -11 -356
-13 -1866 -13 -1200 0 -1837 3 -1867 10 -82 18 -157 85 -179 160 -3 13 -8 855
-9 1872 -3 1758 -2 1849 15 1893 33 84 93 136 177 157 11 2 846 5 1855 5 1587
0 1842 -2 1883 -14z"/>
<path d="M1467 4081 c-143 -30 -221 -209 -154 -353 13 -29 99 -164 191 -300
91 -137 163 -248 159 -248 -4 0 0 -6 9 -12 8 -7 154 -222 324 -477 l308 -464
1 -511 c1 -555 -1 -531 56 -605 10 -13 17 -27 14 -31 -3 -4 1 -7 8 -7 6 1 35
-10 62 -23 95 -45 238 -23 302 46 13 14 33 44 45 67 22 42 22 48 23 554 l1
511 489 734 c270 403 498 753 507 778 35 90 20 183 -42 253 -58 66 -137 101
-210 94 -68 -6 -127 -34 -166 -79 -16 -19 -209 -305 -429 -636 -220 -331 -402
-601 -405 -601 -3 0 -185 270 -405 601 -220 331 -413 617 -429 636 -56 65
-159 94 -259 73z"/>
</g>
</svg>
